<?xml version="1.0" encoding="UTF-8"?>
<!-- Generator: Adobe Illustrator 15.0.2, SVG Export Plug-In . SVG Version: 6.00 Build 0)  -->
<!DOCTYPE svg PUBLIC "-//W3C//DTD SVG 1.1//EN" "http://www.w3.org/Graphics/SVG/1.1/DTD/svg11.dtd">
<svg xmlns="http://www.w3.org/2000/svg" xmlns:xlink="http://www.w3.org/1999/xlink" version="1.1" id="Layer_1" x="0px" y="0px" width="512px" height="419.676px" viewBox="0 0 512 419.676" enable-background="new 0 0 512 419.676" xml:space="preserve">
<path fill="#fff" d="M0,309.23l105.154,3.805c-13.312,19.938-22.789,42.639-27.378,67.032L0,309.23z M149.174,158.481l71.655,77.029  c-24.383,4.858-46.976,14.576-66.752,28.074L149.174,158.481z M361.25,157.364l-3.793,105.155  c-19.95-13.308-42.66-22.778-67.043-27.379L361.25,157.364z M512,306.538l-77.03,71.666c-4.847-24.394-14.564-46.98-28.074-66.763  L512,306.538z M294.218,273.348c59.2,15.854,100.044,66.011,106.888,123.349h96.185v22.979H14.71v-22.979h97.311  c0.819-6.8,2.132-13.622,3.955-20.444C136.78,298.616,216.587,252.544,294.218,273.348z M256,0l86.175,86.175H278.98v91.92h-45.96  v-91.92h-63.195L256,0z" />
</svg>
