<?xml version="1.0" encoding="UTF-8"?>
<!-- Generator: Adobe Illustrator 15.0.2, SVG Export Plug-In . SVG Version: 6.00 Build 0)  -->
<!DOCTYPE svg PUBLIC "-//W3C//DTD SVG 1.1//EN" "http://www.w3.org/Graphics/SVG/1.1/DTD/svg11.dtd">
<svg xmlns="http://www.w3.org/2000/svg" xmlns:xlink="http://www.w3.org/1999/xlink" version="1.1" id="Layer_1" x="0px" y="0px" width="512px" height="464.323px" viewBox="0 0 512 464.323" enable-background="new 0 0 512 464.323" xml:space="preserve">
<path fill="#fff" d="M0,151.866l105.154,3.804c-13.312,19.939-22.789,42.645-27.378,67.038L0,151.866z M149.174,1.117l71.655,77.03  c-24.383,4.853-46.976,14.57-66.752,28.074L149.174,1.117z M361.25,0l-3.793,105.16c-19.95-13.318-42.66-22.789-67.043-27.384  L361.25,0z M512,149.174l-77.03,71.66c-4.847-24.382-14.564-46.975-28.074-66.752L512,149.174z M294.218,115.982  c59.2,15.855,100.044,66.006,106.888,123.344h96.185v22.979H14.71v-22.979h97.311c0.819-6.8,2.132-13.622,3.955-20.433  C136.78,141.252,216.587,95.18,294.218,115.982z M256,464.323l-86.175-86.175h63.195v-91.92h45.96v91.92h63.194L256,464.323z" />
</svg>
