<?xml version="1.0" encoding="utf-8"?>
<!DOCTYPE svg PUBLIC "-//W3C//DTD SVG 1.1//EN" "http://www.w3.org/Graphics/SVG/1.1/DTD/svg11.dtd">
<svg version="1.1" id="Layer_1" xmlns="http://www.w3.org/2000/svg" xmlns:xlink="http://www.w3.org/1999/xlink" x="0px" y="0px" viewBox="0 0 512 485.053" enable-background="new 0 0 512 485.053" xml:space="preserve">
<g><path fill="#fff" fill-opacity="0.2" d="M256,0c108.632,0,197.237,79.987,201.921,180.296l0.185-5.138c0-37.737-11.868-72.889-32.316-102.369
	C478.671,115.98,512,179.039,512,249.263c0,130.225-114.618,235.79-256,235.79S0,379.487,0,249.263
	C0,179.039,33.329,115.98,86.217,72.789c-20.447,29.48-32.322,64.632-32.322,102.369l0.191,5.138C58.763,79.987,147.375,0,256,0z
	 M458.105,188.632c0,104.184-90.487,188.631-202.105,188.631S53.895,292.815,53.895,188.632v53.895
	c0,104.185,90.487,181.895,202.105,181.895s202.105-77.71,202.105-181.895V188.632z"/></g>
</svg>